# xmcd
#
# Track frame offsets:
#	150
#	21792
#	50678
#	71344
#	88351
#	102706
#	121195
#	142563
#	168745
#	186956
#
# Disc length: 2815 seconds
#
# Revision: 1
# Processed by: cddbd v1.4PL0 Copyright (c) Steve Scherf et al.
# Submitted via: audiograbber 1.80
#
DISCID=8b0afd0a
DTITLE=Robson e Adilson - Mais Uma Chace
DYEAR=1900
DGENRE=
TTITLE0=Mais Uma Chace
TTITLE1=Lava-me Senhor
TTITLE2=Casinha Branca
TTITLE3=Castelo De Areia
TTITLE4=Ele Não Demora
TTITLE5=Quem é Como Tu
TTITLE6=Homem Santo
TTITLE7=Lembra-te De Mim
TTITLE8=Deixa-me Passar
TTITLE9=Não Vou Retroceder
EXTD=
EXTT0=
EXTT1=
EXTT2=
EXTT3=
EXTT4=
EXTT5=
EXTT6=
EXTT7=
EXTT8=
EXTT9=
PLAYORDER=
